<svg width="66" height="67" viewBox="0 0 66 67" fill="none" xmlns="http://www.w3.org/2000/svg">
<path fill-rule="evenodd" clip-rule="evenodd" d="M11.6418 0.00110218C12.0414 0.00110218 12.8794 0.105808 13.5111 0.262868C14.1429 0.406839 15.084 0.760222 15.6642 1.07434C16.3732 1.44081 16.9792 1.91199 17.598 2.54023C18.2555 3.19464 18.6681 3.77053 19.6608 5.72068L18.7068 6.62377C18.1911 7.10804 17.4949 7.91951 17.1597 8.42995C16.8245 8.92731 16.3732 9.79113 16.1541 10.3278C15.922 10.8644 15.6513 11.8329 15.5352 12.4873C15.4063 13.181 15.3419 14.1495 15.4063 16.0081L14.5039 16.3222C14.0139 16.4923 13.2275 16.6756 12.7634 16.741C12.2993 16.7934 11.4484 16.7934 10.8682 16.7279C10.2752 16.6625 9.43718 16.4662 8.99884 16.3091C8.54761 16.139 7.83853 15.7725 7.41308 15.4976C6.98764 15.2228 6.35591 14.7254 6.02071 14.3982C5.67262 14.071 5.16982 13.4428 4.88619 13.0109C4.61545 12.5789 4.22868 11.7806 4.04819 11.2439C3.8677 10.7073 3.67431 9.88275 3.62274 9.41157C3.58406 8.9404 3.58406 8.11584 3.62274 7.57922C3.67431 7.0426 3.84191 6.19186 4.0224 5.68142C4.19 5.17097 4.61545 4.33332 4.96354 3.7967C5.32453 3.26008 5.93047 2.52714 6.31724 2.18684C6.70401 1.83346 7.49044 1.30993 8.0577 1.02199C8.62496 0.734046 9.50164 0.393751 9.99155 0.262868C10.4815 0.131985 11.2292 0.0141905 11.6418 0.00110218ZM40.0693 0.00110218C40.6237 -0.0119861 41.3972 0.0927201 42.0032 0.249779C42.5446 0.393751 43.4342 0.734046 43.9628 1.0089C44.6461 1.34919 45.2134 1.78111 45.9095 2.47479C46.4381 3.01141 47.0699 3.78361 47.289 4.17626C47.5082 4.56891 47.8047 5.2495 47.9594 5.68142C48.1012 6.11333 48.2817 6.89862 48.3462 7.42216C48.4321 8.05039 48.4321 8.70481 48.3462 9.3854C48.2688 9.93511 48.1012 10.7466 47.9594 11.1785C47.8305 11.6104 47.4308 12.4088 47.0827 12.9454C46.7347 13.482 46.1674 14.1888 45.8193 14.516C45.4712 14.8432 44.9039 15.3013 44.543 15.5238C44.1949 15.7594 43.5116 16.0866 43.0346 16.2698C42.5446 16.4662 41.6809 16.6625 41.1007 16.7279C40.5077 16.7934 39.6826 16.7934 39.2571 16.741C38.8317 16.6887 38.3031 16.597 38.0968 16.5447C37.8905 16.4923 37.4522 16.3353 36.5497 15.9557L36.5368 14.3459C36.5368 13.1025 36.4724 12.5135 36.2403 11.702C36.0856 11.1261 35.7633 10.2361 35.5183 9.73878C35.2863 9.24143 34.8093 8.44304 34.4612 7.97186C34.1002 7.50069 33.4813 6.80701 32.2953 5.74686L32.566 5.13171C32.7078 4.77832 33.0559 4.15009 33.3395 3.73126C33.6103 3.29935 34.1904 2.61876 34.6288 2.22611C35.0542 1.82037 35.8406 1.27067 36.3692 1.0089C36.8978 0.747134 37.7229 0.406839 38.2257 0.275956C38.7285 0.131985 39.5536 0.0141905 40.0693 0.00110218ZM15.9865 18.3116C16.0252 18.3116 16.2314 18.6781 16.4377 19.1231C16.6569 19.5681 17.1468 20.3796 17.5464 20.9293C17.9461 21.4659 18.6552 22.2381 19.996 23.3506L19.5705 23.5338C19.3385 23.6385 18.7712 23.9003 18.3071 24.1228C17.843 24.3453 17.0952 24.8165 16.6311 25.1699C16.167 25.5102 15.5997 25.9813 15.3676 26.2169C15.1227 26.4394 14.607 27.0677 14.2073 27.6043C13.8077 28.1409 13.2404 29.1225 12.9439 29.7638C12.6474 30.4052 12.2993 31.3214 12.1703 31.7925C11.977 32.5124 11.9254 33.3893 11.7965 41.9359L9.19222 41.9752C7.74828 41.9883 6.57508 41.9621 6.57508 41.9098C6.57508 41.8443 6.69111 41.4386 6.83293 40.9936C7.07788 40.2214 7.09077 39.7895 7.09077 27.2116L6.70401 26.819C6.43327 26.5441 6.18831 26.4263 5.90468 26.4263C5.62105 26.4132 5.35031 26.531 4.77016 27.0807V33.4024C4.77016 37.1587 4.71859 39.9073 4.64123 40.2083C4.56388 40.4701 4.31893 40.902 4.09976 41.1637C3.8677 41.4124 3.44225 41.7134 3.15862 41.8312C2.81053 41.9621 2.46243 42.0014 2.06277 41.949C1.74046 41.8967 1.27634 41.7265 1.03139 41.5564C0.786431 41.3993 0.451231 41.0067 0 40.1036L0.038677 33.5594C0.0773539 27.12 0.0773539 27.0022 0.373877 26.0991C0.541477 25.6018 0.863785 24.8034 1.10874 24.3322C1.35369 23.861 1.80492 23.1543 2.12723 22.7616C2.44954 22.369 3.04259 21.7669 3.44225 21.4135C3.8548 21.0732 4.56388 20.6021 5.028 20.3534C5.49213 20.1047 6.27856 19.7775 6.76847 19.6204C7.52911 19.3718 8.12216 19.3063 10.5717 19.2278C12.9052 19.1362 13.6787 19.0707 14.5039 18.8351C15.0711 18.6912 15.6255 18.5079 15.7286 18.4425C15.8318 18.377 15.9478 18.3116 15.9865 18.3116ZM47.1859 26.819C47.3793 26.819 47.9981 27.1593 48.733 27.6959C49.4034 28.1933 50.5121 28.8608 51.1825 29.188C51.8529 29.5283 52.9359 29.9863 53.5676 30.2088C54.2122 30.4444 55.308 30.7716 56.0171 30.9549C56.7262 31.1381 58.0283 31.3999 58.9179 31.5439C59.8075 31.6747 61.3674 31.8318 62.3988 31.8711C63.4302 31.9103 64.5003 31.9627 64.7839 31.9889C65.1191 32.0281 65.4285 32.1721 65.6606 32.4077C66.0216 32.7611 66.0345 32.8003 65.97 33.8867C65.9442 34.5018 65.8153 35.7714 65.6992 36.7006C65.5832 37.6299 65.3769 39.1089 65.2351 39.9727C65.1062 40.8365 64.8355 42.2762 64.655 43.1793C64.4616 44.0824 64.0619 45.7054 63.7525 46.7786C63.4431 47.8649 62.9274 49.4224 62.618 50.247C62.3086 51.0716 61.7026 52.4851 61.2643 53.3882C60.8388 54.2913 60.0911 55.6394 59.627 56.3985C59.15 57.1576 58.3764 58.2701 57.9123 58.8853C57.4353 59.5004 56.4684 60.5867 55.7593 61.3066C55.0502 62.0265 53.9157 63.0343 53.2453 63.5447C52.5749 64.0551 51.6466 64.7095 51.1825 64.9975C50.7184 65.2854 49.7128 65.8482 48.9263 66.254C48.1528 66.6597 47.3922 67 47.2503 67C47.1085 67 46.3608 66.6728 45.5743 66.2671C44.8008 65.8613 43.6018 65.1676 42.9314 64.7226C42.261 64.2645 41.2683 63.5447 40.7397 63.1128C40.2111 62.6678 39.1926 61.7123 38.4836 60.9663C37.7616 60.2203 36.756 59.0423 36.2403 58.3617C35.7246 57.6811 34.9897 56.621 34.6288 56.0058C34.2549 55.3907 33.649 54.3305 33.288 53.65C32.927 52.9694 32.3726 51.7652 32.0374 50.9669C31.7022 50.1685 31.1865 48.7549 30.8771 47.8257C30.5677 46.8964 30.1422 45.4174 29.9231 44.5536C29.7168 43.6898 29.3945 42.1846 29.214 41.2161C29.0335 40.2476 28.8014 38.6508 28.6983 37.6823C28.5952 36.7137 28.4662 35.274 28.4147 34.4756C28.3373 33.2715 28.3631 32.9705 28.5436 32.6171C28.6983 32.2899 28.8788 32.159 29.2398 32.0674C29.4976 32.0019 30.6193 31.9103 31.7151 31.8711C32.8109 31.8318 34.4741 31.6878 35.3894 31.5439C36.3048 31.413 37.6456 31.1512 38.3546 30.968C39.0637 30.7847 40.108 30.4837 40.6753 30.2874C41.2425 30.0911 42.3513 29.6199 43.1248 29.2272C43.9112 28.8346 45.0715 28.1409 45.7033 27.6697C46.3737 27.1724 46.9925 26.819 47.1859 26.819ZM42.2868 32.1852C41.5777 32.4731 40.3787 32.8919 39.6181 33.1014C38.8446 33.3239 37.6198 33.6118 36.872 33.7558C36.1243 33.8997 34.8866 34.083 34.1002 34.1615C33.3266 34.24 32.5144 34.3709 32.2953 34.4625C32.089 34.5542 31.7538 34.8159 31.5604 35.0384C31.3541 35.274 31.1349 35.7059 31.0447 36.02C30.9158 36.465 30.9287 36.91 31.1092 38.3367C31.2381 39.3052 31.4959 40.9543 31.7151 42.0014C31.9214 43.0485 32.2953 44.606 32.5402 45.4698C32.7852 46.3336 33.2493 47.721 33.5587 48.5455C33.8681 49.3701 34.5256 50.8491 35.0155 51.8176C35.4925 52.7861 36.279 54.1735 36.7431 54.8933C37.2201 55.6132 37.9808 56.6733 38.432 57.2492C38.8832 57.812 39.747 58.7936 40.3658 59.4088C40.9718 60.0239 41.8614 60.8485 42.3642 61.2542C42.8541 61.66 43.7436 62.3275 44.3496 62.7332C44.9555 63.152 45.7677 63.6363 46.1545 63.8195C46.696 64.0813 46.9925 64.1468 47.4437 64.1075C47.8434 64.0551 48.372 63.8195 49.1197 63.3745C49.7257 63.0081 50.7055 62.3275 51.3114 61.8825C51.9174 61.4244 53.1421 60.325 54.0317 59.4219C54.9213 58.5057 56.1203 57.1445 56.6746 56.3723C57.229 55.6132 57.9768 54.4876 58.3377 53.8855C58.6858 53.2966 59.2531 52.2364 59.6012 51.5558C59.9364 50.8752 60.4908 49.5795 60.8388 48.6764C61.1869 47.7733 61.6768 46.3074 61.9218 45.4043C62.1796 44.5012 62.5277 43.0485 62.7082 42.1715C62.8887 41.2815 63.1595 39.6586 63.3013 38.5723C63.4947 37.0017 63.5205 36.452 63.4173 36.0462C63.34 35.7583 63.1595 35.3656 63.0305 35.1693C62.8887 34.9599 62.5664 34.685 62.3086 34.5542C62.0378 34.4233 61.419 34.2662 60.9162 34.227C60.4134 34.1746 59.4078 34.0437 58.66 33.939C57.9123 33.8212 56.8164 33.6118 56.2105 33.4678C55.6046 33.3239 54.5603 33.0359 53.8899 32.8134C53.2195 32.5909 52.0721 32.159 51.3501 31.8449C50.6152 31.5308 49.5323 31.0072 48.9263 30.68C48.0626 30.2088 47.7016 30.0911 47.2246 30.1041C46.7346 30.1041 46.2834 30.2612 45.0973 30.8894C44.2593 31.3083 42.9959 31.8972 42.2868 32.1852ZM26.3648 6.07406C27.0094 6.10024 27.8474 6.23112 28.2342 6.34892C28.6209 6.46671 29.3558 6.76774 29.8457 7.02951C30.4645 7.34363 31.0834 7.82789 31.7925 8.54775C32.566 9.33304 32.9528 9.85658 33.3009 10.5895C33.5587 11.1261 33.8681 11.9245 33.9713 12.3564C34.0873 12.8014 34.1775 13.6914 34.1904 14.3851C34.1904 15.1442 34.1002 15.9557 33.9713 16.4792C33.8552 16.9504 33.52 17.8012 33.2235 18.377C32.8496 19.0969 32.3984 19.712 31.7538 20.3665C31.0447 21.0863 30.5548 21.4528 29.7555 21.8454C29.1624 22.1334 28.3373 22.4606 27.9119 22.5653C27.4864 22.67 26.6355 22.7616 26.0167 22.7616C25.385 22.7616 24.5728 22.6962 24.2118 22.6176C23.8379 22.5391 23.0128 22.225 22.3682 21.9109C21.7364 21.5968 20.8984 21.0601 20.5117 20.7068C20.1249 20.3665 19.5448 19.699 19.2224 19.2278C18.9001 18.7566 18.4747 17.9582 18.2813 17.4609C18.1008 16.9635 17.8816 16.0473 17.7914 15.4322C17.6883 14.6338 17.6883 14.0448 17.7785 13.3773C17.8559 12.8538 18.0106 12.147 18.1266 11.8067C18.2426 11.4533 18.5134 10.8251 18.7454 10.3932C18.9646 9.96128 19.5319 9.20216 20.0089 8.69172C20.473 8.19436 21.1692 7.57922 21.556 7.35671C21.9298 7.12113 22.5873 6.78083 23.0128 6.59759C23.4382 6.42745 24.1086 6.21803 24.4954 6.15259C24.8822 6.07406 25.7331 6.04789 26.3648 6.07406ZM36.0985 18.3901C36.2016 18.4425 36.756 18.6257 37.3233 18.7959C38.2257 19.0838 38.7156 19.1362 41.3199 19.2278C43.8339 19.3194 44.4269 19.3718 45.1876 19.6204C45.6904 19.7775 46.4897 20.1178 46.9925 20.3796C47.6242 20.7198 48.2302 21.2041 49.0553 22.0418C49.6999 22.6831 50.409 23.5469 50.6281 23.9396C50.8602 24.3322 51.1954 25.1044 51.3759 25.641C51.5564 26.1777 51.6853 26.6488 51.6466 26.6881C51.6079 26.7274 51.2985 26.5834 50.9633 26.3609C50.6281 26.1515 49.9448 25.628 49.442 25.2091C48.9392 24.7772 48.3591 24.3453 48.1528 24.2406C47.895 24.1097 47.5211 24.0574 47.0441 24.0835C46.4381 24.1228 46.2061 24.2144 45.7548 24.594C45.4454 24.8427 44.7879 25.3662 44.2851 25.7457C43.7823 26.1253 42.8927 26.6881 42.2868 27.0022C41.6809 27.3294 40.5592 27.8006 39.7728 28.0624C38.9993 28.3241 38.3546 28.5205 38.3546 28.4943C38.3418 28.4681 38.0839 28.1016 37.7745 27.6697C37.4522 27.2378 36.872 26.5703 36.4853 26.1777C36.0985 25.7981 35.4281 25.2353 35.0026 24.9474C34.5772 24.6463 33.7134 24.1752 31.9601 23.3506L32.682 22.7616C33.0817 22.4344 33.7392 21.7669 34.1389 21.2565C34.5514 20.7591 35.1058 19.8822 35.3894 19.3194C35.7762 18.5734 35.9567 18.3378 36.0985 18.3901ZM30.2325 25.3138L31.2639 25.6803C31.8311 25.8897 32.7078 26.2955 33.1977 26.5965C33.7005 26.8844 34.4998 27.5388 35.0026 28.0493C35.802 28.8608 35.8793 28.9655 35.6473 29.0571C35.5054 29.1094 34.4998 29.2403 33.4298 29.3581C32.3468 29.4759 30.6579 29.5675 29.691 29.5675C28.2342 29.5675 27.8216 29.6199 27.3962 29.8162C27.1125 29.9471 26.7516 30.1958 26.5969 30.3659C26.4421 30.5361 26.2488 30.8633 26.1714 31.0727C26.0812 31.3083 26.0167 32.0936 26.0296 32.9705C26.0425 33.795 26.1069 35.1562 26.1843 35.9808C26.2488 36.8053 26.4035 38.1665 26.5066 38.9911C26.6226 39.8156 26.8547 41.2292 27.0223 42.1323C27.2028 43.0354 27.5767 44.6714 27.8474 45.7708C28.131 46.8571 28.3631 47.8257 28.3631 47.8911C28.3631 47.9696 26.9836 48.022 24.4954 48.022C22.3682 48.022 20.6277 48.0089 20.6277 47.9958C20.6277 47.9696 20.7566 47.6686 20.9113 47.3021C21.2079 46.6477 21.2079 46.5954 21.2981 33.2977L20.9629 32.8789C20.6922 32.5255 20.5375 32.4469 20.1507 32.4469C19.8542 32.4339 19.5319 32.5386 19.0162 32.9443L18.9517 39.5408C18.8872 45.9017 18.8744 46.1373 18.6165 46.6477C18.4747 46.9357 18.1008 47.3545 17.8043 47.5639C17.3531 47.878 17.121 47.9566 16.5924 47.9566C16.1455 47.9478 15.7501 47.8475 15.4063 47.6555C15.1227 47.4854 14.7488 47.1451 14.246 46.399V39.7895C14.246 33.7427 14.2718 33.0883 14.4781 32.3161C14.6199 31.8449 14.9293 31.0334 15.1872 30.4968C15.4579 29.9733 15.9736 29.1618 16.3346 28.7037C16.7084 28.2456 17.3531 27.6043 17.7527 27.2771C18.1653 26.9499 18.913 26.4787 19.4029 26.23C19.9057 25.9813 20.7437 25.6672 21.2723 25.5102C22.149 25.2746 22.5873 25.2615 30.2325 25.3138ZM47.2503 32.4731L48.0239 32.8919C48.4493 33.1275 49.3518 33.5725 50.0222 33.8867C50.6926 34.1877 51.8142 34.6458 52.5104 34.8814C53.1937 35.13 54.3282 35.4703 55.0244 35.6536C55.7077 35.8368 56.9712 36.0986 57.822 36.2425C58.6729 36.3734 59.7559 36.5174 60.2458 36.5567C61.0322 36.6221 61.1096 36.6614 61.1096 36.9362C61.1096 37.0933 61.0193 37.8786 60.9162 38.6639C60.8002 39.4623 60.5681 40.8104 60.4005 41.6742C60.2329 42.538 59.8848 43.9777 59.627 44.8808C59.3691 45.7839 58.9437 47.0535 58.6987 47.6948C58.4538 48.3492 57.8994 49.5795 57.4868 50.4433C57.0743 51.3072 56.2879 52.6945 55.7464 53.5191C55.2049 54.3436 54.4056 55.4692 53.9543 56.0058C53.516 56.5425 52.5749 57.5503 51.8658 58.2309C51.1567 58.9114 50.0609 59.8407 49.4291 60.2988C48.7974 60.7438 48.0497 61.2673 47.2503 61.7516L46.2834 61.1495C45.7548 60.8223 44.8266 60.1679 44.2206 59.6837C43.6147 59.2125 42.6607 58.3486 42.0805 57.7728C41.5133 57.1969 40.6753 56.2545 40.224 55.6786C39.7728 55.1028 39.0766 54.1342 38.6898 53.5191C38.2902 52.9039 37.5811 51.6344 37.1041 50.7051C36.64 49.7758 36.0469 48.4539 35.7891 47.7995C35.5312 47.132 35.1187 45.8886 34.8737 45.051C34.6288 44.2002 34.2936 42.826 34.1131 42.0014C33.9326 41.1768 33.7005 39.8156 33.5845 38.9911C33.4813 38.1665 33.3653 37.2896 33.2622 36.6352L34.2033 36.5567C34.7061 36.5174 35.7117 36.3996 36.4208 36.2818C37.1299 36.1771 38.1999 35.9677 38.8059 35.8368C39.4118 35.6928 40.7139 35.3002 41.7066 34.9599C42.6994 34.6327 44.3496 33.9259 45.381 33.4155L47.2503 32.4731ZM48.604 44.7499C46.5928 47.3807 44.9039 49.5795 44.8395 49.658C44.775 49.7366 44.182 49.2261 43.2924 48.323C42.0418 47.0535 41.7711 46.8441 41.423 46.8441C41.191 46.8441 40.8815 46.8964 40.7397 46.9749C40.5979 47.0404 40.4045 47.2891 40.3014 47.5246C40.2111 47.7602 40.1596 48.1005 40.1982 48.2838C40.2369 48.4801 41.062 49.4224 42.2739 50.6658C44.1949 52.6291 44.3109 52.7207 44.8008 52.7338C45.2262 52.7338 45.3939 52.6552 45.7806 52.2364C46.0385 51.9747 47.9594 49.5141 50.048 46.7786C52.1365 44.0432 53.9415 41.6611 54.0575 41.4779C54.1735 41.2946 54.2767 40.9543 54.2767 40.7187C54.2767 40.4439 54.1606 40.1821 53.9543 39.9727C53.7223 39.7371 53.4902 39.6455 53.1421 39.6455C52.8714 39.6455 52.562 39.7109 52.4459 39.8026C52.3299 39.8942 50.6023 42.1192 48.604 44.7499Z" fill="#7E450F"/>
</svg>
