<svg width="57" height="57" viewBox="0 0 57 57" fill="none" xmlns="http://www.w3.org/2000/svg">
<path fill-rule="evenodd" clip-rule="evenodd" d="M22.5067 0H33.1308L33.1976 0.300586C33.2422 0.478711 33.3869 1.40273 33.5317 2.38242C33.7656 3.90762 33.8324 4.16367 34.0217 4.23047C34.1442 4.28613 34.8458 4.50879 35.5808 4.74258C36.3158 4.97637 37.6967 5.55527 40.3695 6.88008L42.0176 5.6666C42.9197 4.99863 43.6881 4.45312 43.7327 4.45312C43.7883 4.45312 45.4922 6.12305 47.5302 8.16035C49.557 10.1865 51.2274 11.8898 51.2274 11.9455C51.2274 11.99 50.6818 12.7805 48.7774 15.3633L49.4902 16.7326C49.8799 17.4785 50.3811 18.5695 50.5927 19.1484C50.8154 19.7273 51.1049 20.5734 51.5059 21.8648L53.4547 22.1654C54.5238 22.3324 55.4704 22.4771 55.5372 22.4771C55.6486 22.4883 55.682 23.5904 55.682 32.7305L54.9247 32.0402C54.5015 31.6506 53.7331 31.0605 53.2209 30.7154C52.7086 30.3703 51.8845 29.8916 51.3945 29.6355C50.9045 29.3906 50.0804 29.0455 49.557 28.8674C49.0336 28.6781 48.2652 28.4443 47.8308 28.3441C47.3965 28.2439 46.5502 28.0992 44.824 27.8877L44.7461 26.7744C44.7015 26.1621 44.579 25.2604 44.4788 24.7705C44.3786 24.2807 44.1558 23.4346 43.9776 22.8779C43.7995 22.3324 43.354 21.2748 42.9865 20.54C42.619 19.8053 41.962 18.7254 41.5276 18.1465C41.0933 17.5676 40.4363 16.766 40.0576 16.3875C39.679 15.9979 39.0219 15.3855 38.5876 15.0404C38.1533 14.6842 37.4629 14.1609 37.0285 13.8938C36.5942 13.6154 35.8258 13.1701 35.3024 12.9141C34.779 12.658 33.8547 12.2795 33.2422 12.068C32.6297 11.8676 31.7387 11.6227 31.2599 11.5336C30.7922 11.4334 29.8233 11.3109 29.1217 11.2441C28.2679 11.1699 27.4141 11.1699 26.5603 11.2441C25.8587 11.3109 24.8899 11.4334 24.411 11.5336C23.9433 11.6227 23.0301 11.8787 22.3842 12.0902C21.7383 12.3129 20.6914 12.7582 20.0455 13.1033C19.3996 13.4373 18.4864 13.9939 17.9964 14.3391C17.5176 14.6953 16.6712 15.3967 16.1144 15.9199C15.5687 16.4432 14.7223 17.3895 14.2323 18.0352C13.7423 18.692 13.0741 19.783 12.6955 20.54C12.328 21.2748 11.8825 22.3324 11.7044 22.8779C11.5262 23.4346 11.2923 24.3029 11.1809 24.8262C11.0139 25.5832 10.9694 26.24 10.9694 28.166C10.9694 30.2033 11.0139 30.7154 11.2144 31.6172C11.348 32.1961 11.6041 33.1312 11.7934 33.6768C11.9939 34.2334 12.3391 35.0795 12.573 35.5693C12.818 36.0592 13.2746 36.8607 13.5864 37.3506C13.9094 37.8404 14.4996 38.642 14.9116 39.1207C15.3126 39.6105 16.0476 40.3676 16.5487 40.7906C17.0387 41.2248 17.8182 41.8371 18.2748 42.1488C18.7314 42.4717 19.6001 42.9727 20.2126 43.2844C20.8251 43.5961 21.7048 43.9746 22.1614 44.1416C22.618 44.3086 23.5201 44.5646 24.166 44.7094C24.8119 44.8652 25.9144 45.0211 27.9301 45.1436L28.008 45.8115C28.0415 46.1789 28.1528 46.858 28.2419 47.3145C28.3421 47.7709 28.5871 48.6727 28.7987 49.3184C29.0215 49.9641 29.4335 50.966 29.7342 51.5449C30.0349 52.1238 30.5917 53.0256 30.9703 53.5488C31.349 54.0721 31.9058 54.7623 32.7967 55.6641H22.4955L22.4287 55.1408C22.3842 54.8402 22.2394 53.9051 21.8719 51.4893L21.0478 51.2332C20.5912 51.0885 19.7337 50.799 19.1546 50.5764C18.5755 50.3648 17.4841 49.8639 15.3682 48.7617L13.6978 49.9863C12.7735 50.6654 11.9939 51.2109 11.9382 51.2109C11.8937 51.2109 10.1898 49.541 8.15185 47.5037C6.12502 45.4775 4.45456 43.7742 4.45456 43.7297C4.45456 43.674 5.00024 42.9059 6.89343 40.3564L6.19184 38.9648C5.80206 38.1967 5.30093 37.0945 5.08934 36.5156C4.86661 35.9367 4.57706 35.0795 4.17615 33.7992L2.61705 33.5543C1.75955 33.4318 0.824094 33.2871 0 33.1758V22.4883L0.534547 22.4215C0.824094 22.377 1.75955 22.2322 4.17615 21.8648L4.43229 21.041C4.57706 20.5846 4.86661 19.7273 5.08934 19.1484C5.30093 18.5695 5.80207 17.4674 6.89343 15.3076L5.66843 13.6711C5.00024 12.7582 4.45456 11.99 4.45456 11.9455C4.45456 11.8898 6.12502 10.1865 8.15185 8.16035C10.1898 6.12305 11.8937 4.45312 11.9382 4.45312C11.9939 4.45312 12.7735 5.00977 15.3682 6.90234L16.7269 6.18984C17.4841 5.8002 18.5755 5.29922 19.1546 5.0877C19.7337 4.86504 20.5912 4.57559 21.8719 4.1748L22.1169 2.61621C22.2394 1.75898 22.3842 0.823828 22.4287 0.534375L22.5067 0ZM44.0445 31.2832C44.7795 31.2832 45.804 31.35 46.3274 31.4391C46.8508 31.5281 47.6749 31.7396 48.1649 31.8955C48.6549 32.0625 49.4011 32.3742 49.8354 32.5857C50.2586 32.7973 50.9602 33.2092 51.3945 33.4986C51.8177 33.7881 52.5193 34.3447 52.9425 34.7344C53.3656 35.1352 54.0227 35.8811 54.4236 36.4043C54.8134 36.9164 55.3813 37.8516 55.682 38.4639C55.9827 39.0762 56.3502 40.0225 56.5061 40.5791C56.662 41.1246 56.8513 42.0264 56.9181 42.583C56.9961 43.1396 57.0184 44.0859 56.985 44.7539C56.9516 45.3885 56.8513 46.268 56.7511 46.7021C56.662 47.1252 56.4838 47.8043 56.3502 48.2051C56.2166 48.5947 55.9159 49.2961 55.6931 49.7637C55.4704 50.2201 55.1029 50.8658 54.8802 51.2109C54.6575 51.5449 54.1897 52.1461 53.8556 52.5469C53.5104 52.9365 52.9202 53.5266 52.5415 53.8605C52.1518 54.1834 51.5393 54.651 51.1718 54.8959C50.8043 55.1408 50.1472 55.5082 49.724 55.7086C49.2897 55.9201 48.6438 56.1873 48.2763 56.3098C47.9088 56.4322 47.1292 56.6326 46.5502 56.7662C45.804 56.9221 45.0913 57 44.1558 57C43.3874 57 42.4631 56.9221 41.9842 56.8219C41.5276 56.7217 40.7926 56.5436 40.3695 56.4211C39.9351 56.2875 39.2113 56.0092 38.7547 55.8088C38.2981 55.5973 37.4963 55.1408 36.9729 54.7957C36.4494 54.4506 35.5919 53.7381 35.0685 53.2148C34.5451 52.6916 33.8658 51.89 33.554 51.4336C33.2422 50.966 32.8301 50.2646 32.6297 49.875C32.4292 49.4742 32.1174 48.7172 31.9392 48.2051C31.761 47.6818 31.5494 46.8246 31.4603 46.3125C31.3601 45.7893 31.2933 44.8096 31.2933 44.1416C31.2933 43.4625 31.3712 42.4605 31.4603 41.915C31.5606 41.3584 31.761 40.5346 31.9169 40.0781C32.0728 39.6105 32.3847 38.8646 32.6185 38.4082C32.8412 37.9406 33.2533 37.2393 33.5206 36.8496C33.7878 36.4488 34.4783 35.6361 35.0685 35.0572C35.6588 34.4672 36.4383 33.7881 36.8058 33.532C37.1733 33.2871 37.8749 32.8863 38.3649 32.6303C38.8549 32.3854 39.6345 32.0625 40.091 31.9066C40.5476 31.7508 41.3272 31.5504 41.8172 31.4613C42.3072 31.3723 43.3095 31.2943 44.0445 31.2832ZM42.4074 40.5902L42.4297 45.7559H49.8911V42.416H45.7706V35.291C43.2983 35.291 42.5411 35.3244 42.4854 35.3578C42.4297 35.4023 42.3963 37.7514 42.4074 40.5902ZM28.3978 14.5395C28.9769 14.5729 29.8567 14.6619 30.3467 14.751C30.8367 14.8289 31.6831 15.0627 32.2399 15.252C32.7856 15.4523 33.5428 15.7529 33.9103 15.9422C34.2778 16.1203 35.0017 16.5545 35.5251 16.8996C36.0485 17.2447 36.8504 17.9016 37.3181 18.3691C37.7858 18.8256 38.4651 19.6049 38.8215 20.0947C39.189 20.5846 39.6901 21.3861 39.9463 21.876C40.2024 22.3658 40.5588 23.2119 40.7481 23.7686C40.9263 24.3141 41.1601 25.2158 41.2604 25.7725C41.3495 26.318 41.4274 27.0861 41.4274 28.166L41.0042 28.2328C40.7815 28.2662 40.2692 28.3887 39.8683 28.5C39.4674 28.6002 38.9217 28.7783 38.6433 28.8785C38.3649 28.9787 38.0531 29.09 37.9417 29.1123C37.7747 29.1568 37.7524 29.0566 37.7635 28.0213C37.7635 27.2197 37.6967 26.574 37.5297 25.8838C37.396 25.3271 37.1065 24.4811 36.8726 23.9912C36.6499 23.5014 36.2824 22.8445 36.0819 22.5439C35.8703 22.2322 35.3915 21.6645 35.024 21.2748C34.6565 20.8852 34.0551 20.3508 33.6876 20.0836C33.3201 19.8164 32.5962 19.4045 32.0728 19.1596C31.5494 18.9035 30.8256 18.6252 30.4581 18.5361C30.0906 18.4359 29.3333 18.3135 28.7876 18.2467C28.0749 18.1576 27.5069 18.1576 26.8387 18.2467C26.3153 18.3135 25.5914 18.4359 25.2239 18.5361C24.8564 18.6363 24.1326 18.9146 23.6092 19.1596C23.0858 19.4045 22.3619 19.8164 21.9944 20.0836C21.6269 20.3508 21.0255 20.8852 20.6469 21.2748C20.2794 21.6645 19.8117 22.2322 19.6001 22.5439C19.3885 22.8445 19.0321 23.5014 18.8094 23.9912C18.5755 24.4811 18.2748 25.3271 18.1523 25.8838C17.9853 26.5852 17.9185 27.2309 17.9185 28.1104C17.9185 28.7783 17.9742 29.6021 18.041 29.9473C18.0967 30.2812 18.2637 30.8824 18.3973 31.2832C18.5198 31.6729 18.7537 32.2518 18.9096 32.5635C19.0655 32.8641 19.3885 33.4207 19.6335 33.7881C19.8785 34.1555 20.4242 34.79 20.8473 35.202C21.2594 35.6139 21.9944 36.2039 22.4621 36.5156C22.941 36.8273 23.7205 37.2281 24.1883 37.4062C24.6671 37.5844 25.4021 37.807 25.8365 37.9072C26.2596 37.9963 27.1617 38.0742 27.841 38.0742C28.9546 38.0742 29.0549 38.0854 28.9992 38.2635C28.9658 38.3748 28.8321 38.7645 28.7096 39.1318C28.5871 39.4992 28.3978 40.2229 28.0971 41.6924L27.3844 41.7258C26.9946 41.7369 26.1928 41.6813 25.6137 41.5811C25.0346 41.492 24.0992 41.2582 23.5535 41.0689C22.9967 40.8908 22.1503 40.5346 21.6603 40.2785C21.1703 40.0225 20.5133 39.6551 20.2126 39.4436C19.9007 39.2432 19.3328 38.7867 18.9319 38.4305C18.531 38.0742 17.8962 37.4508 17.5398 37.0389C17.1723 36.6158 16.6044 35.8699 16.2814 35.3689C15.9696 34.8568 15.5241 34.0219 15.3014 33.5098C15.0898 32.9865 14.778 32.0848 14.6221 31.5059C14.3882 30.6375 14.3325 30.1031 14.288 28.6113C14.2435 27.1752 14.2657 26.5518 14.4105 25.7725C14.5219 25.2158 14.7557 24.3141 14.9339 23.7686C15.1232 23.2119 15.4796 22.3658 15.7357 21.876C15.9919 21.3861 16.5041 20.5846 16.8605 20.0947C17.228 19.6049 17.8294 18.8924 18.1969 18.525C18.5755 18.1465 19.2771 17.5453 19.7671 17.1891C20.2571 16.8217 21.0589 16.3207 21.5489 16.0646C22.0389 15.8086 22.8185 15.4746 23.2751 15.3076C23.7317 15.1406 24.4333 14.9402 24.8342 14.8512C25.2351 14.7621 25.959 14.6396 26.449 14.584C26.939 14.5283 27.8187 14.5061 28.3978 14.5395ZM28.2308 21.5531C28.654 21.5754 29.2887 21.6756 29.6228 21.7758C29.9569 21.8648 30.5806 22.132 31.0149 22.3547C31.4826 22.5996 32.084 23.0561 32.5183 23.4902C33.0417 24.0135 33.3647 24.4699 33.6988 25.1602C33.9549 25.6723 34.2222 26.3514 34.3001 26.6631C34.3669 26.9637 34.4226 27.665 34.4226 28.2217C34.4226 28.9676 34.3558 29.4352 34.1442 30.1143C33.9883 30.593 33.6653 31.3055 33.4315 31.6729C33.1976 32.0402 32.6742 32.6414 32.2844 33.0088C31.8947 33.3762 31.2487 33.8438 30.8478 34.033C30.4469 34.2334 29.8233 34.4672 29.4558 34.5562C29.0883 34.6564 28.3644 34.7344 27.841 34.7344C27.3176 34.7344 26.5937 34.6564 26.2262 34.5562C25.8587 34.4672 25.2351 34.2334 24.8342 34.0441C24.333 33.7992 23.843 33.4207 23.2083 32.7861C22.5067 32.0959 22.2171 31.6951 21.9164 31.0605C21.6937 30.593 21.4598 29.9695 21.3819 29.6689C21.3151 29.3572 21.2483 28.6781 21.2483 28.166C21.2483 27.6428 21.3373 26.8857 21.4376 26.4961C21.5378 26.0953 21.8051 25.4162 22.0278 24.9932C22.2728 24.5256 22.7294 23.9244 23.1637 23.4902C23.6092 23.0449 24.1994 22.5996 24.6671 22.3547C25.1014 22.132 25.6471 21.8871 25.8921 21.8092C26.1371 21.7312 26.5826 21.6311 26.8944 21.5865C27.1951 21.5309 27.7965 21.5197 28.2308 21.5531Z" fill="#7E450F"/>
</svg>
