<svg width="62" height="62" viewBox="0 0 62 62" fill="none" xmlns="http://www.w3.org/2000/svg">
<path fill-rule="evenodd" clip-rule="evenodd" d="M30.8547 0.001487C32.441 -0.0106244 33.2887 0.0499328 34.4148 0.231605C35.2383 0.376942 36.4008 0.60706 36.9941 0.764508C37.5875 0.921957 38.6289 1.26108 39.2949 1.50331C39.9609 1.75765 41.0508 2.22999 41.7168 2.56911C42.3828 2.92035 43.4484 3.53803 44.0781 3.96193C44.7078 4.39794 45.6402 5.07618 46.1367 5.50009C46.6332 5.91187 47.5051 6.73545 48.0621 7.32891C48.6312 7.92238 49.4789 8.92763 49.9512 9.55742C50.4234 10.1872 51.1137 11.253 51.4891 11.9192C51.8766 12.5853 52.4094 13.6511 52.6758 14.2809C52.9543 14.9107 53.366 16.0613 53.5961 16.8243C53.8383 17.5873 54.1289 18.8469 54.2621 19.6099C54.3953 20.3729 54.5285 21.79 54.577 22.7589C54.6133 23.8126 54.5891 25.048 54.5043 25.8473C54.4195 26.5861 54.25 27.7246 54.1047 28.3907C53.9715 29.0569 53.6566 30.2438 53.3902 31.031C53.1359 31.8062 52.7121 32.8962 52.4578 33.4533C52.2035 33.9983 51.6949 34.9672 51.3195 35.597C50.9441 36.2268 50.2902 37.2079 49.8664 37.7771C49.4547 38.3463 48.5828 39.3395 47.9531 40.0056C47.3234 40.6596 46.391 41.5317 45.8945 41.9313C45.398 42.331 44.4898 42.9729 43.8965 43.3605C43.3031 43.748 42.5766 44.2325 41.7773 44.8017H20.2227L19.702 44.4263C19.4234 44.2204 18.7574 43.7844 18.2246 43.4453C17.6918 43.1061 16.7957 42.4642 16.2266 42.0161C15.6574 41.568 14.6766 40.6596 14.0469 40.0056C13.4172 39.3395 12.5453 38.3463 12.1336 37.7771C11.7098 37.2079 11.0559 36.2268 10.6805 35.597C10.3051 34.9672 9.78437 33.9862 9.53008 33.417C9.26367 32.8477 8.85195 31.7577 8.59766 30.9947C8.34336 30.2317 8.02851 29.0569 7.89531 28.3907C7.75 27.7246 7.58047 26.5861 7.4957 25.8473C7.41094 25.048 7.38672 23.8126 7.42305 22.7589C7.47148 21.79 7.60469 20.3729 7.73789 19.6099C7.87109 18.8469 8.17383 17.5752 8.40391 16.8001C8.64609 16.0128 9.09414 14.7896 9.40898 14.075C9.72383 13.3483 10.3172 12.2219 10.7168 11.5558C11.1164 10.8897 11.7703 9.90865 12.1699 9.37575C12.5695 8.84284 13.5262 7.77704 14.2891 7.00191C15.052 6.22677 16.1418 5.24575 16.7109 4.82184C17.2801 4.39794 18.3094 3.70759 19.0117 3.2958C19.7141 2.8719 20.8402 2.29055 21.5184 1.98776C22.2086 1.68498 23.4074 1.24897 24.1824 1.00674C24.9695 0.77662 26.3137 0.449611 27.1855 0.304273C28.3965 0.0862672 29.2441 0.0135985 30.8426 0.001487H30.8547ZM25.8051 8.22516C25.6113 8.62484 25.5629 8.95185 25.5629 10.0782V11.4347C24.2914 12.125 23.7586 12.4399 23.5648 12.5611L23.2016 12.8033C21.034 11.58 20.5375 11.3741 20.2348 11.3741C20.0047 11.3741 19.6051 11.5074 19.3508 11.6527C19.0359 11.8465 18.7211 12.2219 18.2609 13.0092C17.9098 13.6148 17.0016 15.165 16.2629 16.4609C15.5121 17.7569 14.8703 19.0165 14.8219 19.2466C14.7734 19.5494 14.8219 19.8279 15.0035 20.2155C15.2215 20.6878 15.4152 20.8574 16.4809 21.4872L17.7039 22.2139V24.9995C15.4152 26.356 15.2215 26.5256 15.0035 26.9979C14.8219 27.3855 14.7734 27.664 14.8219 27.9668C14.8703 28.1969 15.7059 29.7835 16.6746 31.4791C17.6555 33.1748 18.5758 34.7492 18.7332 34.9672C18.8906 35.1731 19.2055 35.4638 19.4113 35.597C19.6293 35.7303 20.0047 35.8393 20.2348 35.8393C20.5254 35.8393 21.0461 35.6213 21.9301 35.1247L23.2016 34.4101C23.7707 34.7735 24.2914 35.0884 24.7395 35.3306L25.5629 35.7787C25.5629 38.2373 25.6113 38.5886 25.793 38.964C25.9262 39.2184 26.2168 39.5211 26.4832 39.6786C26.9434 39.945 27.0523 39.945 30.9758 39.9572C34.766 39.9572 35.0324 39.945 35.4926 39.7149C35.8155 39.5534 36.0577 39.3112 36.2191 38.9882C36.425 38.5886 36.4613 38.2737 36.4613 37.1352L36.4492 35.7787C36.9699 35.5365 37.5027 35.2337 37.975 34.9309L38.8227 34.398C39.6703 34.8946 40.2395 35.2216 40.6391 35.4396C41.075 35.6697 41.5352 35.8393 41.7895 35.8272C42.0195 35.8272 42.407 35.7182 42.6371 35.5849C42.8672 35.4517 43.1457 35.2216 43.2426 35.0762C43.3395 34.9309 44.2477 33.3685 45.2648 31.6003C46.282 29.832 47.1539 28.2333 47.1902 28.0274C47.2387 27.8215 47.2023 27.4703 47.1418 27.2401C47.0691 27.01 46.8633 26.6709 46.6695 26.4771C46.4879 26.2954 45.8824 25.8837 45.3254 25.5688L44.3203 24.9995V22.2139C45.8824 21.3298 46.4879 20.918 46.6695 20.7363C46.8633 20.5425 47.0691 20.2034 47.1418 19.9733C47.2023 19.7432 47.2387 19.3919 47.1902 19.186C47.1539 18.9801 46.282 17.3814 45.2648 15.6131C44.2477 13.8449 43.3395 12.2825 43.2426 12.1372C43.1457 11.9918 42.8672 11.7617 42.6371 11.6285C42.407 11.4953 42.0195 11.3862 41.7895 11.3862C41.5352 11.3741 41.075 11.5437 40.6391 11.7738C40.2395 11.9918 39.6703 12.3188 39.3676 12.4884L38.8227 12.8154C37.5027 11.9797 36.9699 11.6769 36.7883 11.5921L36.4492 11.4347C36.4613 8.93974 36.425 8.62484 36.2191 8.22516C36.0577 7.90219 35.8155 7.65996 35.4926 7.49847C35.0324 7.26836 34.766 7.25625 30.9758 7.25625C27.2219 7.26836 26.9191 7.28047 26.4953 7.49847C26.2168 7.65592 25.9625 7.92238 25.8051 8.22516ZM1.85273 4.83396C2.20391 4.83396 3.01523 5.18519 5.13438 6.251C7.72578 7.57114 7.96797 7.71648 8.21016 8.1646C8.36758 8.43106 8.48867 8.84285 8.48867 9.07296C8.48867 9.30308 8.3918 9.69065 8.25859 9.92076C8.1375 10.1509 7.82266 10.4658 7.56836 10.6111C7.31406 10.7686 6.89023 10.8897 6.64805 10.8897C6.29688 10.8897 5.48555 10.5384 3.37852 9.46053C0.775 8.15249 0.532813 8.00716 0.290625 7.55903C0.133203 7.29258 0.0121094 6.88079 0.0121094 6.65067C0.0121094 6.42056 0.108984 6.03299 0.242188 5.80287C0.363281 5.57275 0.678125 5.25786 0.932422 5.11252C1.18672 4.95507 1.61055 4.83396 1.86484 4.83396H1.85273ZM60.1594 4.83396C60.4016 4.83396 60.8254 4.95507 61.0797 5.11252C61.334 5.25786 61.6488 5.57275 61.7699 5.80287C61.9031 6.03299 62 6.42056 62 6.65067C62 6.88079 61.8789 7.29258 61.7215 7.55903C61.4793 8.00716 61.2371 8.15249 58.6457 9.46053C56.5266 10.5384 55.7152 10.8897 55.3762 10.8897C55.1219 10.8897 54.698 10.7686 54.4438 10.6111C54.1895 10.4658 53.8746 10.1509 53.7535 9.92076C53.6203 9.69065 53.5234 9.30308 53.5234 9.07296C53.5234 8.84285 53.6445 8.43106 53.802 8.1646C54.0441 7.71648 54.2863 7.57114 56.8898 6.251C58.9969 5.18519 59.8203 4.83396 60.1594 4.83396ZM6.63594 36.3237C6.87812 36.3237 7.30195 36.4448 7.55625 36.6023C7.81055 36.7476 8.12539 37.0625 8.24648 37.2926C8.37969 37.5228 8.47656 37.9103 8.47656 38.1404C8.47656 38.3706 8.35547 38.7824 8.19805 39.0488C7.95586 39.4969 7.71367 39.6423 5.12227 40.9624C3.12422 41.9677 2.17969 42.3795 1.87695 42.3795C1.64688 42.3795 1.23516 42.2705 0.96875 42.1372C0.645833 41.9757 0.403646 41.7335 0.242188 41.4105C0.108984 41.1441 0 40.7444 0 40.5385C0 40.3205 0.121094 39.9208 0.278516 39.6544C0.520703 39.2063 0.762891 39.0609 3.36641 37.7529C5.47344 36.675 6.29688 36.3237 6.63594 36.3237ZM55.3641 36.3237C55.7152 36.3237 56.5266 36.675 58.6457 37.7529C61.2371 39.0609 61.4793 39.2063 61.7215 39.6544C61.8789 39.9208 62 40.3205 62 40.5385C62 40.7444 61.891 41.1441 61.7578 41.4105C61.5964 41.7335 61.3542 41.9757 61.0312 42.1372C60.7648 42.2705 60.3531 42.3795 60.123 42.3795C59.8203 42.3795 58.8758 41.9677 56.8898 40.9624C54.2863 39.6423 54.0441 39.4969 53.802 39.0488C53.6445 38.7824 53.5234 38.3706 53.5234 38.1404C53.5234 37.9103 53.6203 37.5228 53.7535 37.2926C53.8746 37.0625 54.1895 36.7476 54.4438 36.6023C54.698 36.4448 55.1219 36.3237 55.3762 36.3237H55.3641ZM23.6859 58.3666H38.3141L38.2172 58.8752C38.1566 59.1659 38.0234 59.614 37.9023 59.8805C37.7812 60.1469 37.527 60.5587 37.3211 60.7889C37.1273 61.019 36.6187 61.3944 35.4684 62H26.5074L25.7566 61.6124C25.357 61.3944 24.8484 61.019 24.6547 60.7889C24.4488 60.5587 24.1945 60.1469 24.0734 59.8805C23.9523 59.614 23.8191 59.1659 23.7707 58.8874L23.6859 58.3666ZM20.6707 48.4352H41.2809L41.2445 49.9733C41.2203 51.3298 41.184 51.5963 40.9055 52.1897C40.7359 52.5531 40.3848 53.086 40.1184 53.3766C39.852 53.6794 39.307 54.067 38.084 54.6726H23.9039L23.2379 54.3577C22.8746 54.1881 22.3418 53.8369 22.0512 53.5704C21.7484 53.2919 21.3609 52.759 21.143 52.3108C20.7797 51.572 20.7555 51.4267 20.7191 49.9733L20.6707 48.4352ZM29.1715 10.8897H32.8043V12.016C32.8043 12.9486 32.8527 13.2151 33.0707 13.5905C33.2402 13.8691 33.5309 14.1355 33.8336 14.2809C34.1 14.402 34.7176 14.7048 35.2262 14.9349C35.7227 15.1771 36.4008 15.5889 36.7398 15.8554C37.0668 16.1218 37.5391 16.4488 37.7934 16.5821C38.0477 16.7153 38.423 16.8243 38.641 16.8243C38.8711 16.8243 39.4402 16.6063 40.0336 16.2793C40.5785 15.9765 41.0508 15.7343 41.0629 15.7343C41.075 15.7343 41.4867 16.4004 41.9711 17.2119C42.4555 18.0354 42.843 18.75 42.843 18.7985C42.843 18.8469 42.4191 19.1255 41.8863 19.4283C41.0871 19.8764 40.8691 20.0702 40.6512 20.4941C40.409 20.9664 40.3969 21.0633 40.5301 21.9717C40.6027 22.5046 40.6754 23.2434 40.6754 23.6067C40.6754 23.97 40.6027 24.7088 40.5301 25.2417C40.3969 26.1501 40.409 26.247 40.6512 26.7315C40.8691 27.1432 41.0871 27.3491 41.8863 27.7852C42.4191 28.0879 42.843 28.3786 42.843 28.4271C42.843 28.4755 42.4555 29.1901 41.9711 30.0015C41.4867 30.8251 41.075 31.4913 41.0629 31.4913C41.0508 31.4791 40.5543 31.2248 39.973 30.922C39.0285 30.4133 38.859 30.3649 38.3746 30.4254C38.0477 30.4739 37.6844 30.6313 37.4664 30.813C37.2605 30.9826 36.7156 31.3823 36.2555 31.685C35.7832 31.9999 35.0445 32.3996 34.6207 32.5692C34.1848 32.7509 33.7125 32.9689 33.5551 33.0657C33.4098 33.1626 33.1797 33.4291 33.0465 33.6592C32.8527 33.9983 32.8043 34.3132 32.8043 36.3237H29.1715L29.1594 35.2095C29.1594 34.2769 29.1109 34.0104 28.893 33.6229C28.6992 33.2959 28.4328 33.0779 27.9848 32.872C27.6336 32.7024 27.0402 32.4238 26.6527 32.2422C26.2652 32.0605 25.5266 31.5881 24.9937 31.1885C24.2793 30.6677 23.8918 30.4497 23.5406 30.4133C23.1289 30.3649 22.8746 30.4497 21.9906 30.922C21.4094 31.2248 20.9129 31.4791 20.9008 31.4913C20.8887 31.4913 20.477 30.8251 19.9926 30.0015C19.5203 29.1901 19.1207 28.4876 19.1086 28.4513C19.1086 28.4149 19.5445 28.1364 20.0773 27.8215C20.925 27.3249 21.0945 27.1675 21.3125 26.6709C21.5547 26.138 21.5668 26.029 21.4336 25.1812C21.3609 24.6846 21.2883 23.97 21.2883 23.6067C21.2883 23.2434 21.3609 22.5288 21.4336 22.0322C21.5668 21.1965 21.5547 21.0875 21.3125 20.5546C21.0945 20.058 20.925 19.9006 20.0773 19.404C19.5445 19.0891 19.1086 18.7985 19.1086 18.7621C19.1207 18.7258 19.5203 18.0354 19.9926 17.2119C20.477 16.4004 20.8887 15.7343 20.9008 15.7343C20.9129 15.7343 21.3852 15.9765 21.9301 16.2793C22.5234 16.5942 23.0926 16.8243 23.3227 16.8243C23.5406 16.8243 23.8676 16.7516 24.0492 16.6547C24.2309 16.57 24.7395 16.2308 25.1754 15.9038C25.5992 15.5768 26.2652 15.1529 26.6527 14.9712C27.0402 14.7896 27.6336 14.511 27.9848 14.3536C28.4328 14.1477 28.6992 13.9175 28.893 13.5905C29.1109 13.2151 29.1594 12.9486 29.1594 12.016L29.1715 10.8897ZM28.893 17.3209C28.4813 17.442 27.8879 17.7084 27.573 17.9143C27.2582 18.1081 26.7375 18.5078 26.4348 18.7863C26.1199 19.077 25.6598 19.6341 25.3934 20.0338C25.1391 20.4335 24.8121 21.1117 24.6668 21.5478C24.4488 22.1654 24.4004 22.6136 24.4004 23.6067C24.4004 24.5998 24.4488 25.048 24.6668 25.6656C24.8121 26.0896 25.1391 26.7799 25.3934 27.1796C25.6477 27.5793 26.1562 28.1727 26.5195 28.4876C26.8828 28.8146 27.452 29.2264 27.7789 29.4081C28.118 29.6019 28.6871 29.8562 29.0504 29.9773C29.5348 30.1348 30.0676 30.1953 30.9879 30.1953C31.993 30.1953 32.4289 30.1469 33.0465 29.9289C33.4824 29.7835 34.1121 29.4929 34.4391 29.287C34.7781 29.0811 35.2867 28.6814 35.5773 28.4028C35.868 28.1243 36.316 27.5793 36.5824 27.1796C36.8367 26.7799 37.1758 26.0896 37.3211 25.6656C37.527 25.048 37.5875 24.5998 37.5875 23.6067C37.5875 22.6136 37.527 22.1654 37.3211 21.5478C37.1758 21.1117 36.8367 20.4335 36.5824 20.0338C36.3281 19.6341 35.8438 19.0528 35.5168 18.75C35.1898 18.4472 34.6812 18.0597 34.3785 17.878C34.0879 17.6963 33.5066 17.442 33.107 17.2966C32.6469 17.1392 31.993 17.0302 31.2906 17.006C30.6973 16.9817 30.0797 16.9939 29.9223 17.0302C29.777 17.0665 29.3047 17.1997 28.893 17.3209ZM30.9273 20.5788C31.1937 20.5788 31.6902 20.6636 32.0172 20.7847C32.3805 20.9058 32.8285 21.1844 33.1191 21.4751C33.4098 21.7658 33.6883 22.2139 33.8094 22.5772C33.9305 22.9042 34.0273 23.3645 34.0273 23.6067C34.0273 23.8368 33.9305 24.2971 33.8094 24.6362C33.6883 24.9874 33.4098 25.4355 33.1191 25.7262C32.8285 26.0169 32.3805 26.3076 32.0172 26.4287C31.6902 26.5377 31.2301 26.6346 30.9879 26.6346C30.7578 26.6346 30.2977 26.5377 29.9586 26.4287C29.6074 26.3076 29.1594 26.0169 28.8687 25.7262C28.5781 25.4355 28.2875 24.9874 28.1664 24.6362C28.0574 24.2971 27.9605 23.8368 27.9605 23.6067C27.9605 23.3645 28.0574 22.9042 28.1664 22.5772C28.2875 22.2139 28.5781 21.7658 28.8687 21.4751C29.1352 21.2086 29.6074 20.8937 29.898 20.7847C30.2008 20.6878 30.6609 20.591 30.9273 20.5788Z" fill="#7E450F"/>
</svg>
