<svg width="70" height="47" viewBox="0 0 70 47" fill="none" xmlns="http://www.w3.org/2000/svg">
<path d="M64.0482 20.7086V22.8191H64.8152C65.6244 22.8191 66.2584 22.5183 66.2584 21.716C66.2584 21.185 65.9968 20.7064 64.9771 20.7064C64.6578 20.7064 64.4849 20.695 64.0482 20.7086ZM61.9289 28.1638V18.6392C62.4454 18.6392 64.8152 18.6392 65.0812 18.6392C67.6107 18.6392 68.5107 19.9314 68.5107 21.6887C68.5107 23.4573 67.4511 24.1798 66.9478 24.4396L69.628 28.1638H67.0587L64.8285 24.8613H64.0482V28.1638H61.9289Z" fill="#EB5757"/>
<path d="M59.3813 24.0658C59.3813 26.9786 57.5812 28.1638 55.5949 28.1638C53.2118 28.1638 51.5558 26.7621 51.5558 23.9701V18.6392H53.6751V23.5074C53.6751 24.9912 54.1119 26.1216 55.5949 26.1216C56.8785 26.1216 57.262 25.1553 57.262 23.6305V18.6392H59.3813V24.0658Z" fill="#EB5757"/>
<path d="M46.284 46.9034H0.663757V0H46.284V16.0478H44.1691V2.17434H2.7764V44.7291H44.1691V30.7508H46.284V46.9034Z" fill="#EB5757"/>
<path d="M37.1749 28.1661L32.7789 22.4476V28.1661H30.7903V18.6367H32.4862L36.8845 24.3803L36.8801 18.6367H38.8664L38.8708 28.1661H37.1749Z" fill="#EB5757"/>
<path d="M41.4206 18.6353H49.102V20.6774H46.3198V28.1667H44.2005V20.6774H41.4206V18.6353Z" fill="#EB5757"/>
<path d="M9.98322 18.6353H12.1025V22.7879L15.1352 18.6353H17.6779L14.1952 23.0341L17.955 28.1667H15.2682L12.1025 23.6312V28.1667H9.98322V18.6353Z" fill="#EB5757"/>
<path d="M23.4814 26.2016C25.1906 26.2016 26.0774 24.9594 26.0774 23.4005C26.0774 21.7093 24.9335 20.5993 23.4814 20.5993C21.9917 20.5993 20.8877 21.7093 20.8877 23.4005C20.8877 24.9845 22.0427 26.2016 23.4814 26.2016ZM23.4814 18.6187C26.2193 18.6187 28.2632 20.4534 28.2632 23.4005C28.2632 26.2016 26.2193 28.1823 23.4814 28.1823C20.7458 28.1823 18.7018 26.3452 18.7018 23.4005C18.7018 20.7178 20.6172 18.6187 23.4814 18.6187Z" fill="#EB5757"/>
</svg>
